# Alias OBJ Model File
# Exported from SketchUp, (c) 2000-2012 Trimble Navigation Limited
# File units = meters

mtllib mar2014test.mtl

g Mesh1 Model

usemtl Stone_Sandstone_Ashlar_Light
v 0.64 0 1.10851
vt -0.349956 -1.21228
vn 0 -1 -0
v -0.64 0 1.10851
vt 0.349956 -1.21228
v -1.28 0 -1.56755e-016
vt 0.699913 1.71429e-016
v -0.64 0 -1.10851
vt 0.349956 1.21228
v 0.64 0 -1.10851
vt -0.349956 1.21228
v 1.28 0 -0
vt -0.699913 0
f 1/1/1 2/2/1 3/3/1 4/4/1 5/5/1 6/6/1 

vt -0.349956 0
vn -7.04992e-016 0 1
vt 0.349956 0
v 0.64 1.77 1.10851
vt 0.349956 1.9357
v -0.64 1.77 1.10851
vt -0.349956 1.9357
f 2/7/2 1/8/2 7/9/2 8/10/2 

vn 0.866025 0 0.5
v 1.28 1.77 -0
f 1/7/3 6/8/3 9/9/3 7/10/3 

vn 0.866025 0 -0.5
v 0.64 1.77 -1.10851
f 6/7/4 5/8/4 10/9/4 9/10/4 

vn 1.40998e-016 0 -1
v -0.64 1.77 -1.10851
f 5/7/5 4/8/5 11/9/5 10/10/5 

vn -0.866025 0 -0.5
v -1.28 1.77 -1.56755e-016
f 4/7/6 3/8/6 12/9/6 11/10/6 

vn -0.866025 0 0.5
f 3/7/7 2/8/7 8/9/7 12/10/7 

vn 0 1 -0
vt 0.699913 0
vt -0.699913 1.71429e-016
f 8/1/8 7/2/8 9/11/8 10/4/8 11/5/8 12/12/8 

