# 3ds Max Wavefront OBJ Exporter v0.97b - (c)2007 guruware
# File Created: 09.11.2014 22:59:41

mtllib test.mtl

#
# object Box001
#

v  -404.8646 0.0000 301.9446
v  -404.8646 0.0000 1.4707
v  401.6251 0.0000 1.4707
v  401.6251 0.0000 301.9446
v  -404.8646 0.0000 -299.0034
v  401.6251 0.0000 -299.0034
v  -404.8646 520.8217 301.9446
v  401.6251 520.8217 301.9446
v  401.6251 520.8217 1.4707
v  -404.8646 520.8217 1.4707
v  401.6251 520.8217 -299.0034
v  -404.8646 520.8217 -299.0034
# 12 vertices

vn 0.0000 -1.0000 -0.0000
vn 0.0000 1.0000 -0.0000
vn 0.0000 0.0000 1.0000
vn 1.0000 0.0000 -0.0000
vn 0.0000 0.0000 -1.0000
vn -1.0000 0.0000 -0.0000
# 6 vertex normals

vt 1.0000 0.0000 0.0000
vt 1.0000 0.5000 0.0000
vt 0.0000 0.5000 0.0000
vt 0.0000 0.0000 0.0000
vt 1.0000 1.0000 0.0000
vt 0.0000 1.0000 0.0000
vt 0.5000 0.0000 0.0000
vt 0.5000 1.0000 0.0000
# 8 texture coords

g Box001
usemtl bois
f 1/1/1 2/2/1 3/3/1 4/4/1 
f 2/2/1 5/5/1 6/6/1 3/3/1 
f 7/4/2 8/1/2 9/2/2 10/3/2 
f 10/3/2 9/2/2 11/5/2 12/6/2 
f 1/4/3 4/1/3 8/5/3 7/6/3 
f 4/4/4 3/7/4 9/8/4 8/6/4 
f 3/7/4 6/1/4 11/5/4 9/8/4 
f 6/4/5 5/1/5 12/5/5 11/6/5 
f 5/4/6 2/7/6 10/8/6 12/6/6 
f 2/7/6 1/1/6 7/5/6 10/8/6 
# 10 polygons

